<svg xmlns="http://www.w3.org/2000/svg" xmlns:xlink="http://www.w3.org/1999/xlink" version="1.1" x="0px" y="0px" viewBox="0 0 100 125" style="enable-background:new 0 0 100 100;" xml:space="preserve"><path d="M79.1,8.2c0-3.8-3.1-7-7-7s-7,3.1-7,7c0,3.1,2.1,5.8,5,6.7v23.7L59.1,48v50.7h4V49.8l11.1-9.4V14.9  C77,14,79.1,11.4,79.1,8.2z M72.1,11.2c-1.6,0-3-1.3-3-3s1.3-3,3-3s3,1.3,3,3S73.7,11.2,72.1,11.2z"/><path d="M29.9,38.6V26.3c2.9-0.9,5-3.5,5-6.7c0-3.8-3.1-7-7-7s-7,3.1-7,7c0,3.1,2.1,5.8,5,6.7v14.1l11.1,9.4v48.9h4V48L29.9,38.6z   M24.9,19.7c0-1.6,1.3-3,3-3s3,1.3,3,3s-1.3,3-3,3S24.9,21.3,24.9,19.7z"/><path d="M23.1,52c0.5-0.9,0.7-2,0.7-3.1c0-3.8-3.1-7-7-7s-7,3.1-7,7c0,3.8,3.1,7,7,7c1.3,0,2.5-0.3,3.5-0.9l5.6,4.3v39.5h4V57.2  L23.1,52z M16.8,51.9c-1.6,0-3-1.3-3-3s1.3-3,3-3s3,1.3,3,3S18.5,51.9,16.8,51.9z"/><path d="M57,39.5c0-3.8-3.1-7-7-7s-7,3.1-7,7c0,3.1,2.1,5.8,5,6.7v52.5h4V46.2C54.9,45.3,57,42.6,57,39.5z M50,42.5  c-1.6,0-3-1.3-3-3s1.3-3,3-3c1.6,0,3,1.3,3,3S51.6,42.5,50,42.5z"/><path d="M83.2,52.4c-3.8,0-7,3.1-7,7c0,1.1,0.3,2.1,0.7,3.1l-6.8,5.2v31.1h4V69.6l5.6-4.3c1,0.6,2.2,0.9,3.5,0.9c3.8,0,7-3.1,7-7  S87,52.4,83.2,52.4z M83.2,62.3c-1.6,0-3-1.3-3-3c0-1.6,1.3-3,3-3s3,1.3,3,3C86.1,61,84.8,62.3,83.2,62.3z"/><text x="0" y="115" fill="#000000" font-size="5px" font-weight="bold" font-family="'Helvetica Neue', Helvetica, Arial-Unicode, Arial, Sans-serif">Created by IconLion</text><text x="0" y="120" fill="#000000" font-size="5px" font-weight="bold" font-family="'Helvetica Neue', Helvetica, Arial-Unicode, Arial, Sans-serif">from the Noun Project</text></svg>